<mxfile host="Electron" modified="2023-09-17T09:08:18.022Z" agent="Mozilla/5.0 (Windows NT 10.0; Win64; x64) AppleWebKit/537.36 (KHTML, like Gecko) draw.io/21.4.0 Chrome/112.0.5615.204 Electron/24.5.1 Safari/537.36" etag="vUQg035sx_Vvcl9Vt5Rc" version="21.4.0" type="device">
  <diagram name="Page-1" id="-rwXF4MAfiNaSpwIAwEC">
    <mxGraphModel dx="1036" dy="606" grid="1" gridSize="10" guides="1" tooltips="1" connect="1" arrows="1" fold="1" page="1" pageScale="1" pageWidth="850" pageHeight="1100" math="0" shadow="0">
      <root>
        <mxCell id="0" />
        <mxCell id="1" parent="0" />
        <mxCell id="TPIRKc2NeO6J7MrL7H3M-2" value="" style="rounded=0;whiteSpace=wrap;html=1;fillColor=none;" parent="1" vertex="1">
          <mxGeometry x="160" y="120" width="560" height="320" as="geometry" />
        </mxCell>
        <mxCell id="TPIRKc2NeO6J7MrL7H3M-3" value="&lt;font style=&quot;font-size: 15px;&quot;&gt;PRODUCT/ ACCOUNT/ ORDER CONTROL PAGE&lt;/font&gt;" style="rounded=0;whiteSpace=wrap;html=1;fillColor=#0050ef;fontColor=#ffffff;strokeColor=#001DBC;" parent="1" vertex="1">
          <mxGeometry x="160" y="90" width="560" height="30" as="geometry" />
        </mxCell>
        <mxCell id="TPIRKc2NeO6J7MrL7H3M-4" value="X" style="rounded=0;whiteSpace=wrap;html=1;fillColor=#e51400;fontColor=#ffffff;strokeColor=#B20000;" parent="1" vertex="1">
          <mxGeometry x="680" y="90" width="40" height="30" as="geometry" />
        </mxCell>
        <mxCell id="TPIRKc2NeO6J7MrL7H3M-5" value="HEADER" style="rounded=0;whiteSpace=wrap;html=1;fontSize=15;" parent="1" vertex="1">
          <mxGeometry x="170" y="130" width="540" height="30" as="geometry" />
        </mxCell>
        <mxCell id="TPIRKc2NeO6J7MrL7H3M-6" value="FOOTER" style="rounded=0;whiteSpace=wrap;html=1;fontSize=15;" parent="1" vertex="1">
          <mxGeometry x="170" y="400" width="540" height="30" as="geometry" />
        </mxCell>
        <mxCell id="Fe3ZGnqYCwycKdOytdcF-1" value="LEFT MENU" style="rounded=0;whiteSpace=wrap;html=1;fontSize=15;" parent="1" vertex="1">
          <mxGeometry x="170" y="170" width="70" height="210" as="geometry" />
        </mxCell>
        <mxCell id="LmabmJttKB3ILs0rwHuD-1" value="" style="rounded=0;whiteSpace=wrap;html=1;fillColor=none;" parent="1" vertex="1">
          <mxGeometry x="280" y="230" width="420" height="150" as="geometry" />
        </mxCell>
        <mxCell id="LmabmJttKB3ILs0rwHuD-2" value="&amp;nbsp; Add" style="rounded=0;whiteSpace=wrap;html=1;fontSize=15;align=left;" parent="1" vertex="1">
          <mxGeometry x="280" y="180" width="80" height="30" as="geometry" />
        </mxCell>
        <mxCell id="LmabmJttKB3ILs0rwHuD-3" value="" style="sketch=0;pointerEvents=1;shadow=0;dashed=0;html=1;strokeColor=none;fillColor=#505050;labelPosition=center;verticalLabelPosition=bottom;verticalAlign=top;outlineConnect=0;align=center;shape=mxgraph.office.concepts.writing_pencil;" parent="1" vertex="1">
          <mxGeometry x="330" y="186.25" width="20" height="17.5" as="geometry" />
        </mxCell>
        <mxCell id="LmabmJttKB3ILs0rwHuD-4" value="&amp;nbsp;Search" style="rounded=0;whiteSpace=wrap;html=1;fontSize=15;align=left;" parent="1" vertex="1">
          <mxGeometry x="610" y="180" width="90" height="30" as="geometry" />
        </mxCell>
        <mxCell id="LmabmJttKB3ILs0rwHuD-6" value="" style="html=1;verticalLabelPosition=bottom;align=center;labelBackgroundColor=#ffffff;verticalAlign=top;strokeWidth=2;strokeColor=#0080F0;shadow=0;dashed=0;shape=mxgraph.ios7.icons.looking_glass;" parent="1" vertex="1">
          <mxGeometry x="670" y="185" width="20" height="20" as="geometry" />
        </mxCell>
        <mxCell id="LmabmJttKB3ILs0rwHuD-7" value="Edit" style="rounded=0;whiteSpace=wrap;html=1;fontSize=15;" parent="1" vertex="1">
          <mxGeometry x="610" y="258.75" width="70" height="32.5" as="geometry" />
        </mxCell>
        <mxCell id="LmabmJttKB3ILs0rwHuD-8" value="Delete" style="rounded=0;whiteSpace=wrap;html=1;fontSize=15;" parent="1" vertex="1">
          <mxGeometry x="610" y="310" width="70" height="32.5" as="geometry" />
        </mxCell>
        <mxCell id="LmabmJttKB3ILs0rwHuD-9" value="Product/ Account/ Order Information Table" style="text;html=1;strokeColor=none;fillColor=none;align=center;verticalAlign=middle;whiteSpace=wrap;rounded=0;fontSize=18;" parent="1" vertex="1">
          <mxGeometry x="330" y="285" width="220" height="40" as="geometry" />
        </mxCell>
      </root>
    </mxGraphModel>
  </diagram>
</mxfile>
